<svg width="22" height="22" viewBox="0 0 22 22" fill="none" xmlns="http://www.w3.org/2000/svg">
<path d="M10.1291 13.7042L8.43325 15.4C8.07575 15.7575 7.50742 15.7575 7.14075 15.4092C7.03992 15.3084 6.93909 15.2167 6.83825 15.1159C5.89409 14.1625 5.04159 13.1634 4.28075 12.1184C3.52909 11.0734 2.92409 10.0284 2.48409 8.99254C2.05325 7.94754 1.83325 6.94837 1.83325 5.99504C1.83325 5.37171 1.94325 4.77587 2.16325 4.22587C2.38325 3.66671 2.73159 3.15337 3.21742 2.69504C3.80409 2.11754 4.44575 1.83337 5.12409 1.83337C5.38075 1.83337 5.63742 1.88837 5.86659 1.99837C6.10492 2.10837 6.31575 2.27337 6.48075 2.51171L8.60742 5.50921C8.77242 5.73837 8.89158 5.94921 8.97408 6.15087C9.05658 6.34337 9.10242 6.53587 9.10242 6.71004C9.10242 6.93004 9.03825 7.15004 8.90992 7.36087C8.79075 7.57171 8.61658 7.79171 8.39658 8.01171L7.69992 8.73587C7.59908 8.83671 7.55325 8.95587 7.55325 9.10254C7.55325 9.17587 7.56242 9.24004 7.58075 9.31337C7.60825 9.38671 7.63575 9.44171 7.65409 9.49671C7.81909 9.79921 8.10325 10.1934 8.50658 10.67C8.91908 11.1467 9.35908 11.6325 9.83575 12.1184C9.92742 12.21 10.0283 12.3017 10.1199 12.3934C10.4866 12.7509 10.4958 13.3375 10.1291 13.7042Z" fill="#331F52"/>
<path d="M20.1392 16.8025C20.1392 17.0592 20.0934 17.325 20.0017 17.5817C19.9742 17.655 19.9467 17.7283 19.91 17.8017C19.7542 18.1317 19.5525 18.4433 19.2867 18.7367C18.8376 19.2317 18.3425 19.5892 17.7834 19.8183C17.7742 19.8183 17.765 19.8275 17.7559 19.8275C17.215 20.0475 16.6284 20.1667 15.9959 20.1667C15.0609 20.1667 14.0617 19.9467 13.0075 19.4975C11.9534 19.0483 10.8992 18.4433 9.85422 17.6825C9.49672 17.4167 9.13922 17.1508 8.80005 16.8667L11.7975 13.8692C12.0542 14.0617 12.2834 14.2083 12.4759 14.3092C12.5217 14.3275 12.5767 14.355 12.6409 14.3825C12.7142 14.41 12.7875 14.4192 12.87 14.4192C13.0259 14.4192 13.145 14.3642 13.2459 14.2633L13.9425 13.5758C14.1717 13.3467 14.3917 13.1725 14.6025 13.0625C14.8134 12.9342 15.0242 12.87 15.2534 12.87C15.4275 12.87 15.6109 12.9067 15.8125 12.9892C16.0142 13.0717 16.225 13.1908 16.4542 13.3467L19.4884 15.5008C19.7267 15.6658 19.8917 15.8583 19.9925 16.0875C20.0842 16.3167 20.1392 16.5458 20.1392 16.8025Z" fill="#331F52"/>
</svg>
