<svg width="342" height="281" viewBox="0 0 342 281" fill="none" xmlns="http://www.w3.org/2000/svg">
    <circle cx="294.5" cy="33.0435" r="33.0435" fill="#309561"/>
    <path d="M253.038 97.5191V94.38H251.502V97.6348C251.502 98.1635 251.568 98.6261 251.733 98.9896C251.898 99.3696 252.096 99.6835 252.361 99.9148C252.625 100.146 252.922 100.328 253.253 100.443C253.583 100.559 253.947 100.609 254.31 100.609H261.2C261.563 100.609 261.91 100.559 262.241 100.443C262.571 100.328 262.868 100.146 263.133 99.9148C263.397 99.6835 263.595 99.3696 263.761 98.9896C263.926 98.6261 264.008 98.1635 264.008 97.6348V94.38H262.472V97.5191C262.472 97.8496 262.439 98.1304 262.389 98.3617C262.34 98.5931 262.257 98.7913 262.125 98.9235C261.993 99.0557 261.811 99.1548 261.58 99.2209C261.348 99.287 261.068 99.32 260.704 99.32H254.806C254.442 99.32 254.145 99.287 253.914 99.2209C253.682 99.1548 253.517 99.0557 253.385 98.9235C253.253 98.7913 253.154 98.5931 253.104 98.3617C253.055 98.1304 253.038 97.8496 253.038 97.5191ZM256.987 102.872C256.987 103.137 257.069 103.351 257.268 103.533C257.449 103.731 257.664 103.814 257.928 103.814C258.193 103.814 258.408 103.731 258.606 103.533C258.788 103.351 258.887 103.137 258.887 102.872C258.887 102.608 258.788 102.393 258.606 102.195C258.408 102.013 258.193 101.914 257.928 101.914C257.664 101.914 257.449 102.013 257.268 102.195C257.069 102.393 256.987 102.608 256.987 102.872ZM267.697 97.5191V87.54H266.161V97.6348C266.161 98.1635 266.227 98.6261 266.392 98.9896C266.557 99.3696 266.755 99.6835 267.02 99.9148C267.284 100.146 267.582 100.328 267.912 100.443C268.242 100.559 268.606 100.609 268.969 100.609H269.812L269.795 99.32H269.465C269.102 99.32 268.804 99.287 268.573 99.2209C268.342 99.1548 268.176 99.0557 268.044 98.9235C267.912 98.7913 267.813 98.5931 267.763 98.3617C267.714 98.1304 267.697 97.8496 267.697 97.5191ZM281.598 99.6174C281.862 100.014 282.192 100.278 282.572 100.41C282.952 100.543 283.382 100.609 283.845 100.609H284.373V99.32H283.316C282.886 99.32 282.606 99.2374 282.44 99.0557C282.275 98.8739 282.192 98.5931 282.192 98.1965V94.38H280.656V97.5191C280.656 97.8496 280.623 98.1304 280.573 98.3617C280.524 98.5931 280.441 98.7913 280.309 98.9235C280.177 99.0557 279.995 99.1548 279.764 99.2209C279.532 99.287 279.252 99.32 278.888 99.32C278.459 99.32 278.178 99.2374 278.012 99.0557C277.847 98.8739 277.765 98.5931 277.765 98.1965V94.38H276.228V97.5191C276.228 97.8496 276.195 98.1304 276.146 98.3617C276.096 98.5931 276.013 98.7913 275.881 98.9235C275.749 99.0557 275.567 99.1548 275.336 99.2209C275.105 99.287 274.824 99.32 274.46 99.32H274.427C273.998 99.32 273.717 99.2374 273.552 99.0557C273.386 98.8739 273.304 98.5931 273.304 98.1965V94.38H271.767V97.5191C271.767 97.8496 271.734 98.1304 271.685 98.3617C271.635 98.5931 271.552 98.7913 271.42 98.9235C271.288 99.0557 271.106 99.1548 270.875 99.2209C270.644 99.287 270.363 99.32 269.999 99.32H269.52V100.609H270.495C270.925 100.609 271.321 100.543 271.718 100.377C272.114 100.229 272.445 99.9809 272.709 99.6174C272.973 100.014 273.304 100.278 273.684 100.41C274.064 100.543 274.493 100.609 274.956 100.609C275.386 100.609 275.782 100.543 276.179 100.377C276.575 100.229 276.906 99.9809 277.17 99.6174C277.434 100.014 277.765 100.278 278.145 100.41C278.525 100.543 278.954 100.609 279.417 100.609C279.83 100.609 280.226 100.543 280.623 100.377C281.003 100.229 281.333 99.9809 281.598 99.6174ZM284.074 99.32V100.609H291.822V97.1061C291.822 96.627 291.723 96.1809 291.541 95.7513C291.343 95.3383 291.095 94.9748 290.765 94.6609C290.434 94.347 290.071 94.0991 289.641 93.9174C289.212 93.7522 288.749 93.6531 288.27 93.6531H285.197V94.7931H288.121C288.419 94.7931 288.7 94.8591 288.964 94.9583C289.228 95.0739 289.443 95.2226 289.641 95.4209C289.84 95.6191 289.988 95.8339 290.104 96.0983C290.22 96.3626 290.286 96.6435 290.286 96.9409V99.32H284.074ZM305.711 100.46V99.8817C305.959 100.163 306.223 100.361 306.521 100.46C306.818 100.559 307.165 100.609 307.595 100.609H308.206V99.32H306.967C306.488 99.32 306.157 99.2209 305.976 99.0226C305.794 98.8244 305.711 98.5104 305.711 98.0644V87.54H304.191V100.625C304.191 100.923 304.125 101.203 304.01 101.468C303.894 101.732 303.745 101.963 303.547 102.162C303.349 102.36 303.117 102.509 302.853 102.608C302.589 102.723 302.308 102.773 302.01 102.773H300.557C300.259 102.773 299.978 102.723 299.714 102.608C299.45 102.509 299.218 102.36 299.02 102.162C298.822 101.963 298.657 101.732 298.541 101.468C298.425 101.203 298.376 100.923 298.376 100.625V96.0487H296.856V100.46C296.856 100.956 296.938 101.418 297.137 101.848C297.318 102.277 297.566 102.657 297.897 102.988C298.21 103.318 298.59 103.583 299.02 103.781C299.45 103.979 299.912 104.062 300.408 104.062H302.159C302.638 104.062 303.101 103.979 303.53 103.781C303.96 103.583 304.323 103.318 304.654 102.988C304.984 102.657 305.232 102.277 305.43 101.848C305.612 101.418 305.711 100.956 305.711 100.46ZM311.688 98.1965V94.38H310.151V97.5191C310.151 97.8496 310.118 98.1304 310.069 98.3617C310.019 98.5931 309.936 98.7913 309.804 98.9235C309.672 99.0557 309.49 99.1548 309.259 99.2209C309.028 99.287 308.747 99.32 308.383 99.32H307.904V100.609H308.879C309.309 100.609 309.705 100.543 310.102 100.377C310.498 100.229 310.829 99.9809 311.093 99.6174C311.357 100.014 311.688 100.278 312.068 100.41C312.448 100.543 312.877 100.609 313.34 100.609H313.869V99.32H312.811C312.382 99.32 312.101 99.2374 311.936 99.0557C311.77 98.8739 311.688 98.5931 311.688 98.1965ZM308.631 102.905C308.631 103.17 308.714 103.384 308.912 103.566C309.094 103.764 309.309 103.847 309.573 103.847C309.837 103.847 310.052 103.764 310.25 103.566C310.432 103.384 310.531 103.17 310.531 102.905C310.531 102.641 310.432 102.426 310.25 102.228C310.052 102.046 309.837 101.947 309.573 101.947C309.309 101.947 309.094 102.046 308.912 102.228C308.714 102.426 308.631 102.641 308.631 102.905ZM311.176 102.905C311.176 103.17 311.258 103.384 311.456 103.566C311.638 103.764 311.853 103.847 312.117 103.847C312.382 103.847 312.596 103.764 312.795 103.566C312.976 103.384 313.076 103.17 313.076 102.905C313.076 102.641 312.976 102.426 312.795 102.228C312.596 102.046 312.382 101.947 312.117 101.947C311.853 101.947 311.638 102.046 311.456 102.228C311.258 102.426 311.176 102.641 311.176 102.905ZM313.568 99.32V100.609H322.886V99.32H321.316V97.1061C321.316 96.627 321.217 96.1809 321.035 95.7513C320.837 95.3383 320.589 94.9748 320.259 94.6609C319.928 94.347 319.565 94.0991 319.135 93.9174C318.706 93.7522 318.243 93.6531 317.764 93.6531H314.674V94.7931H317.615C317.913 94.7931 318.194 94.8591 318.458 94.9583C318.722 95.0739 318.937 95.2226 319.135 95.4209C319.334 95.6191 319.482 95.8339 319.598 96.0983C319.714 96.3626 319.78 96.6435 319.78 96.9409V99.32H313.568ZM316.971 102.872C316.971 103.137 317.054 103.351 317.252 103.533C317.434 103.731 317.648 103.814 317.913 103.814C318.177 103.814 318.392 103.731 318.59 103.533C318.772 103.351 318.871 103.137 318.871 102.872C318.871 102.608 318.772 102.393 318.59 102.195C318.392 102.013 318.177 101.914 317.913 101.914C317.648 101.914 317.434 102.013 317.252 102.195C317.054 102.393 316.971 102.608 316.971 102.872ZM334.664 99.6174C334.928 100.014 335.259 100.278 335.639 100.41C336.019 100.543 336.448 100.609 336.911 100.609H337.44V99.32H336.382C335.953 99.32 335.672 99.2374 335.507 99.0557C335.341 98.8739 335.259 98.5931 335.259 98.1965V94.38H333.722V97.5191C333.722 97.8496 333.689 98.1304 333.64 98.3617C333.59 98.5931 333.508 98.7913 333.375 98.9235C333.243 99.0557 333.061 99.1548 332.83 99.2209C332.599 99.287 332.318 99.32 331.955 99.32C331.525 99.32 331.244 99.2374 331.079 99.0557C330.914 98.8739 330.831 98.5931 330.831 98.1965V94.38H329.295V97.5191C329.295 97.8496 329.261 98.1304 329.212 98.3617C329.162 98.5931 329.08 98.7913 328.948 98.9235C328.815 99.0557 328.634 99.1548 328.402 99.2209C328.171 99.287 327.89 99.32 327.527 99.32H327.494C327.064 99.32 326.783 99.2374 326.618 99.0557C326.453 98.8739 326.37 98.5931 326.37 98.1965V94.38H324.834V97.5191C324.834 97.8496 324.801 98.1304 324.751 98.3617C324.701 98.5931 324.619 98.7913 324.487 98.9235C324.355 99.0557 324.173 99.1548 323.941 99.2209C323.71 99.287 323.429 99.32 323.066 99.32H322.587V100.609H323.561C323.991 100.609 324.388 100.543 324.784 100.377C325.181 100.229 325.511 99.9809 325.775 99.6174C326.04 100.014 326.37 100.278 326.75 100.41C327.13 100.543 327.56 100.609 328.022 100.609C328.452 100.609 328.848 100.543 329.245 100.377C329.641 100.229 329.972 99.9809 330.236 99.6174C330.501 100.014 330.831 100.278 331.211 100.41C331.591 100.543 332.021 100.609 332.483 100.609C332.896 100.609 333.293 100.543 333.689 100.377C334.069 100.229 334.4 99.9809 334.664 99.6174ZM339.387 94.38V97.5191C339.387 97.8496 339.354 98.1304 339.304 98.3617C339.255 98.5931 339.172 98.7913 339.04 98.9235C338.908 99.0557 338.726 99.1548 338.495 99.2209C338.264 99.287 337.983 99.32 337.619 99.32H337.14V100.609H338.115C338.478 100.609 338.825 100.559 339.156 100.443C339.486 100.328 339.784 100.146 340.048 99.9148C340.312 99.6835 340.51 99.3696 340.676 98.9896C340.841 98.6261 340.924 98.1635 340.924 97.6348V94.38H339.387ZM336.909 91.34C336.909 91.6044 336.991 91.8191 337.19 92.0009C337.371 92.1991 337.586 92.2817 337.85 92.2817C338.115 92.2817 338.33 92.1991 338.528 92.0009C338.71 91.8191 338.809 91.6044 338.809 91.34C338.809 91.0757 338.71 90.8609 338.528 90.6626C338.33 90.4809 338.115 90.3817 337.85 90.3817C337.586 90.3817 337.371 90.4809 337.19 90.6626C336.991 90.8609 336.909 91.0757 336.909 91.34ZM339.453 91.34C339.453 91.6044 339.536 91.8191 339.734 92.0009C339.916 92.1991 340.13 92.2817 340.395 92.2817C340.659 92.2817 340.874 92.1991 341.072 92.0009C341.254 91.8191 341.353 91.6044 341.353 91.34C341.353 91.0757 341.254 90.8609 341.072 90.6626C340.874 90.4809 340.659 90.3817 340.395 90.3817C340.13 90.3817 339.916 90.4809 339.734 90.6626C339.536 90.8609 339.453 91.0757 339.453 91.34Z" fill="white"/>
    <path d="M295 23.0001C292.38 23.0001 290.25 25.1301 290.25 27.7501C290.25 30.3201 292.26 32.4001 294.88 32.4901C294.96 32.4801 295.04 32.4801 295.1 32.4901C295.12 32.4901 295.13 32.4901 295.15 32.4901C295.16 32.4901 295.16 32.4901 295.17 32.4901C297.73 32.4001 299.74 30.3201 299.75 27.7501C299.75 25.1301 297.62 23.0001 295 23.0001Z" fill="white"/>
    <path d="M300.08 35.15C297.29 33.29 292.74 33.29 289.93 35.15C288.66 36 287.96 37.15 287.96 38.38C287.96 39.61 288.66 40.75 289.92 41.59C291.32 42.53 293.16 43 295 43C296.84 43 298.68 42.53 300.08 41.59C301.34 40.74 302.04 39.6 302.04 38.36C302.03 37.13 301.34 35.99 300.08 35.15Z" fill="white"/>
    <path d="M3.95433 104.54H5.98651C6.46564 104.54 6.92825 104.457 7.35781 104.259C7.78738 104.061 8.15086 103.797 8.48129 103.466C8.81173 103.136 9.05955 102.756 9.25781 102.326C9.43955 101.897 9.53868 101.434 9.53868 100.938V98.5426C9.53868 98.2618 9.58825 97.9809 9.7039 97.6835C9.80303 97.3861 9.95173 97.1218 10.15 96.8905C10.3482 96.6591 10.5796 96.4774 10.8439 96.3287C11.1082 96.1965 11.3891 96.1139 11.6865 96.1139H11.8022V97.2705C11.8022 97.7661 11.8848 98.2287 12.083 98.6913C12.2648 99.1539 12.5126 99.567 12.843 99.9139C13.1569 100.277 13.5369 100.558 13.9665 100.773C14.3961 100.988 14.8587 101.087 15.3543 101.087H16.0648V99.8313H15.503C15.2056 99.8313 14.9248 99.7652 14.6604 99.6331C14.3961 99.5009 14.1648 99.3191 13.9665 99.0878C13.7682 98.8731 13.6196 98.6252 13.5039 98.3278C13.3882 98.0305 13.3387 97.7331 13.3387 97.4357V94.8583H11.703C11.2074 94.8583 10.7448 94.9574 10.2987 95.1391C9.8526 95.3209 9.45607 95.5687 9.12564 95.8826C8.77868 96.2131 8.51434 96.5765 8.31607 97.0061C8.11781 97.4357 8.01868 97.8983 8.01868 98.3774V101.103C8.01868 101.401 7.9526 101.682 7.83694 101.946C7.72129 102.21 7.5726 102.442 7.37434 102.64C7.17607 102.838 6.94477 102.987 6.68042 103.086C6.41607 103.202 6.1352 103.251 5.83781 103.251H4.10303C3.80564 103.251 3.52477 103.202 3.26042 103.086C2.99607 102.987 2.76477 102.838 2.56651 102.64C2.36825 102.442 2.20303 102.21 2.08738 101.946C1.97173 101.682 1.92216 101.401 1.92216 101.103V96.527H0.402161V100.938C0.402161 101.434 0.484769 101.897 0.68303 102.326C0.864769 102.756 1.1126 103.136 1.44303 103.466C1.75694 103.797 2.13694 104.061 2.56651 104.259C2.99607 104.457 3.45868 104.54 3.95433 104.54ZM2.94651 106.985C2.94651 107.25 3.02912 107.464 3.22738 107.646C3.40912 107.844 3.6239 107.927 3.88825 107.927C4.1526 107.927 4.36738 107.844 4.56564 107.646C4.74738 107.464 4.84651 107.25 4.84651 106.985C4.84651 106.721 4.74738 106.506 4.56564 106.308C4.36738 106.126 4.1526 106.027 3.88825 106.027C3.6239 106.027 3.40912 106.126 3.22738 106.308C3.02912 106.506 2.94651 106.721 2.94651 106.985ZM5.49086 106.985C5.49086 107.25 5.57347 107.464 5.77173 107.646C5.95347 107.844 6.16825 107.927 6.4326 107.927C6.69694 107.927 6.91173 107.844 7.10999 107.646C7.29173 107.464 7.39086 107.25 7.39086 106.985C7.39086 106.721 7.29173 106.506 7.10999 106.308C6.91173 106.126 6.69694 106.027 6.4326 106.027C6.16825 106.027 5.95347 106.126 5.77173 106.308C5.57347 106.506 5.49086 106.721 5.49086 106.985ZM18.0218 94.8583V97.9974C18.0218 98.3278 17.9888 98.6087 17.9392 98.84C17.8896 99.0713 17.807 99.2696 17.6749 99.4018C17.5427 99.5339 17.361 99.6331 17.1296 99.6991C16.8983 99.7652 16.6175 99.7983 16.254 99.7983H15.7749V101.087H16.7496C17.1131 101.087 17.4601 101.037 17.7905 100.922C18.121 100.806 18.4183 100.624 18.6827 100.393C18.947 100.162 19.1453 99.8478 19.3105 99.4678C19.4757 99.1044 19.5583 98.6418 19.5583 98.1131V94.8583H18.0218ZM17.774 91.8183C17.774 92.0826 17.8566 92.2974 18.0549 92.4791C18.2366 92.6774 18.4514 92.76 18.7157 92.76C18.9801 92.76 19.1949 92.6774 19.3931 92.4791C19.5749 92.2974 19.674 92.0826 19.674 91.8183C19.674 91.5539 19.5749 91.3391 19.3931 91.1409C19.1949 90.9591 18.9801 90.86 18.7157 90.86C18.4514 90.86 18.2366 90.9591 18.0549 91.1409C17.8566 91.3391 17.774 91.5539 17.774 91.8183ZM22.5514 97.4191C22.5514 97.1218 22.6009 96.8409 22.7001 96.5765C22.7992 96.3122 22.9314 96.0974 23.1131 95.8991C23.2783 95.7009 23.4931 95.5522 23.7574 95.4365C24.0053 95.3374 24.2861 95.2713 24.5835 95.2713C24.8809 95.2713 25.1618 95.3374 25.4261 95.4365C25.6905 95.5522 25.9053 95.7009 26.1035 95.8991C26.3018 96.0974 26.4505 96.3122 26.5661 96.5765C26.6818 96.8409 26.7479 97.1218 26.7479 97.4191V99.7983H24.5835C24.2861 99.7983 24.0053 99.7487 23.7574 99.6331C23.4931 99.5174 23.2783 99.3522 23.1131 99.1374C22.9314 98.9226 22.7992 98.6748 22.7001 98.3774C22.6009 98.0965 22.5514 97.7826 22.5514 97.4191ZM24.6001 101.087H26.7479C26.7479 101.483 26.6653 101.83 26.5331 102.095C26.4009 102.376 26.1861 102.607 25.8888 102.772C25.5914 102.937 25.1948 103.07 24.7157 103.136C24.2366 103.218 23.6583 103.251 22.9974 103.251H22.6174V104.54H22.9148C23.7574 104.54 24.5174 104.474 25.1783 104.342C25.8392 104.21 26.4009 104.011 26.8635 103.747C27.3261 103.483 27.6731 103.136 27.9209 102.706C28.1522 102.277 28.2844 101.764 28.2844 101.17V97.5844C28.2844 97.1052 28.1853 96.6426 28.0035 96.2131C27.8053 95.7835 27.5574 95.387 27.227 95.0565C26.8966 94.7261 26.5331 94.4783 26.1035 94.28C25.674 94.0818 25.2114 93.9826 24.7322 93.9826C24.187 93.9826 23.6914 94.0818 23.2453 94.28C22.7827 94.4783 22.4027 94.7261 22.0722 95.0565C21.7418 95.387 21.494 95.7835 21.3122 96.2131C21.1305 96.6426 21.0479 97.1052 21.0479 97.5844C21.0479 98.08 21.1305 98.5261 21.3288 98.9557C21.5105 99.3852 21.7583 99.7652 22.0888 100.079C22.4192 100.393 22.7992 100.641 23.2288 100.823C23.6583 101.004 24.1044 101.087 24.6001 101.087ZM30.2766 104.573H30.8713C31.5653 104.573 32.094 104.358 32.4905 103.896C32.8705 103.433 33.0687 102.838 33.0687 102.111V101.087H34.8696V99.7983H33.0687V94.8583H31.5157V102.045C31.5157 102.409 31.4331 102.706 31.2844 102.904C31.1192 103.103 30.8383 103.202 30.4418 103.202H29.847C29.7148 103.202 29.6157 103.202 29.5331 103.185C29.4505 103.185 29.3844 103.169 29.3513 103.152V104.457C29.4009 104.49 29.5 104.507 29.6322 104.54C29.7644 104.573 29.9792 104.573 30.2766 104.573ZM38.3551 98.6748V94.8583H36.8185V97.9974C36.8185 98.3278 36.7855 98.6087 36.7359 98.84C36.6864 99.0713 36.6037 99.2696 36.4716 99.4018C36.3394 99.5339 36.1577 99.6331 35.9264 99.6991C35.6951 99.7652 35.4142 99.7983 35.0507 99.7983H34.5716V101.087H35.5464C35.9759 101.087 36.3724 101.021 36.769 100.856C37.1655 100.707 37.4959 100.459 37.7603 100.096C38.0246 100.492 38.3551 100.757 38.7351 100.889C39.1151 101.021 39.5446 101.087 40.0072 101.087H40.5359V99.7983H39.4785C39.049 99.7983 38.7681 99.7157 38.6029 99.5339C38.4377 99.3522 38.3551 99.0713 38.3551 98.6748ZM35.3977 91.8183C35.3977 92.0826 35.4803 92.2974 35.6785 92.4791C35.8603 92.6774 36.0751 92.76 36.3394 92.76C36.6037 92.76 36.8185 92.6774 37.0168 92.4791C37.1985 92.2974 37.2977 92.0826 37.2977 91.8183C37.2977 91.5539 37.1985 91.3391 37.0168 91.1409C36.8185 90.9591 36.6037 90.86 36.3394 90.86C36.0751 90.86 35.8603 90.9591 35.6785 91.1409C35.4803 91.3391 35.3977 91.5539 35.3977 91.8183ZM37.942 91.8183C37.942 92.0826 38.0246 92.2974 38.2229 92.4791C38.4046 92.6774 38.6194 92.76 38.8837 92.76C39.1481 92.76 39.3629 92.6774 39.5611 92.4791C39.7429 92.2974 39.842 92.0826 39.842 91.8183C39.842 91.5539 39.7429 91.3391 39.5611 91.1409C39.3629 90.9591 39.1481 90.86 38.8837 90.86C38.6194 90.86 38.4046 90.9591 38.2229 91.1409C38.0246 91.3391 37.942 91.5539 37.942 91.8183ZM40.2348 99.7983V101.087H51.453V99.7983H49.6852V97.7165C49.6852 97.2539 49.5861 96.8244 49.4209 96.4278C49.2391 96.0313 48.9913 95.6844 48.6939 95.387C48.38 95.0896 48.0165 94.8583 47.6035 94.6931C47.1904 94.5278 46.7609 94.4287 46.2983 94.4287H42.5313L48.8591 88.8939L48.4626 88.4313L48.0165 87.8861L42.1678 93.0244C41.9035 93.2557 41.6722 93.5035 41.4574 93.8009C41.2426 94.0983 41.1435 94.3957 41.16 94.6765V95.5852H46.1496C46.4304 95.5852 46.6948 95.6348 46.9426 95.7339C47.1739 95.8331 47.3887 95.9818 47.5704 96.147C47.7522 96.3122 47.9009 96.527 48 96.7583C48.0991 97.0061 48.1652 97.2705 48.1652 97.5678V99.7983H40.2348ZM53.4048 88.0183V97.9974C53.4048 98.3278 53.3718 98.6087 53.3222 98.84C53.2726 99.0713 53.19 99.2696 53.0578 99.4018C52.9257 99.5339 52.7439 99.6331 52.5126 99.6991C52.2813 99.7652 52.0005 99.7983 51.637 99.7983H51.1578V101.087H52.1326C52.4961 101.087 52.8431 101.037 53.1735 100.922C53.5039 100.806 53.8013 100.624 54.0657 100.393C54.33 100.162 54.5283 99.8478 54.6935 99.4678C54.8587 99.1044 54.9413 98.6418 54.9413 98.1131V88.0183H53.4048ZM64.3448 88.0183V97.9974C64.3448 98.3278 64.3117 98.6087 64.2622 98.84C64.2126 99.0713 64.13 99.2696 63.9978 99.4018C63.8656 99.5339 63.6839 99.6331 63.4526 99.6991C63.2213 99.7652 62.9404 99.7983 62.577 99.7983H61.47V92.6774H59.9335V99.7983H56.5135V101.087H63.0726C63.4361 101.087 63.783 101.037 64.1135 100.922C64.4439 100.806 64.7413 100.624 65.0056 100.393C65.27 100.162 65.4683 99.8478 65.6335 99.4678C65.7987 99.1044 65.8813 98.6418 65.8813 98.1131V88.0183H64.3448ZM61.883 104.953V104.259H61.3378C60.9743 104.259 60.743 104.193 60.6274 104.044C60.4952 103.896 60.4456 103.73 60.4456 103.532C60.4456 103.35 60.4952 103.185 60.6274 103.037C60.7596 102.904 60.9578 102.822 61.2387 102.822H61.7674V102.012H60.9909C60.7926 102.012 60.5943 102.062 60.4291 102.128C60.2474 102.21 60.0987 102.31 59.9665 102.442C59.8343 102.574 59.7187 102.723 59.6526 102.888C59.57 103.053 59.537 103.235 59.537 103.4C59.537 103.499 59.5535 103.631 59.5865 103.763C59.6196 103.912 59.7022 104.077 59.8178 104.259H59.0578V104.953H61.883ZM68.0309 101.087H69.5675V88.0183H68.0309V101.087ZM75.0966 99.7983V101.087H83.2418V99.7983H81.474V97.5844C81.474 97.1052 81.3748 96.6591 81.1931 96.2296C80.9948 95.8165 80.747 95.4531 80.4166 95.1391C80.0861 94.8252 79.7227 94.5774 79.2931 94.3957C78.8635 94.2305 78.4009 94.1313 77.9218 94.1313H76.1374V95.2713H77.7731C78.0705 95.2713 78.3513 95.3374 78.6157 95.4365C78.88 95.5522 79.0948 95.7009 79.2931 95.8991C79.4913 96.0974 79.64 96.3122 79.7557 96.5765C79.8713 96.8409 79.9374 97.1218 79.9374 97.4191V99.7983H75.0966ZM86.1315 94.8583V97.9974C86.1315 98.3278 86.0985 98.6087 86.0489 98.84C85.9994 99.0713 85.9167 99.2696 85.7846 99.4018C85.6524 99.5339 85.4707 99.6331 85.2394 99.6991C85.0081 99.7652 84.7272 99.7983 84.3637 99.7983H82.9428V101.087H84.8594C85.2228 101.087 85.5698 101.037 85.9002 100.922C86.2307 100.806 86.5281 100.624 86.7924 100.393C87.0567 100.162 87.255 99.8478 87.4202 99.4678C87.5854 99.1044 87.6681 98.6418 87.6681 98.1131V94.8583H86.1315ZM82.8437 103.383C82.8437 103.648 82.9263 103.863 83.1246 104.044C83.3063 104.243 83.5211 104.325 83.7854 104.325C84.0498 104.325 84.2646 104.243 84.4628 104.044C84.6446 103.863 84.7437 103.648 84.7437 103.383C84.7437 103.119 84.6446 102.904 84.4628 102.706C84.2646 102.524 84.0498 102.425 83.7854 102.425C83.5211 102.425 83.3063 102.524 83.1246 102.706C82.9263 102.904 82.8437 103.119 82.8437 103.383ZM85.3881 103.383C85.3881 103.648 85.4707 103.863 85.6689 104.044C85.8507 104.243 86.0654 104.325 86.3298 104.325C86.5941 104.325 86.8089 104.243 87.0072 104.044C87.1889 103.863 87.2881 103.648 87.2881 103.383C87.2881 103.119 87.1889 102.904 87.0072 102.706C86.8089 102.524 86.5941 102.425 86.3298 102.425C86.0654 102.425 85.8507 102.524 85.6689 102.706C85.4707 102.904 85.3881 103.119 85.3881 103.383ZM89.7161 104.573H90.3109C91.0048 104.573 91.5335 104.358 91.93 103.896C92.31 103.433 92.5083 102.838 92.5083 102.111V101.087H94.3092V99.7983H92.5083V94.8583H90.9552V102.045C90.9552 102.409 90.8726 102.706 90.7239 102.904C90.5587 103.103 90.2778 103.202 89.8813 103.202H89.2865C89.1544 103.202 89.0552 103.202 88.9726 103.185C88.89 103.185 88.8239 103.169 88.7909 103.152V104.457C88.8405 104.49 88.9396 104.507 89.0718 104.54C89.2039 104.573 89.4187 104.573 89.7161 104.573ZM97.7946 98.6748V94.8583H96.2581V97.9974C96.2581 98.3278 96.225 98.6087 96.1755 98.84C96.1259 99.0713 96.0433 99.2696 95.9111 99.4018C95.7789 99.5339 95.5972 99.6331 95.3659 99.6991C95.1346 99.7652 94.8537 99.7983 94.4902 99.7983H94.0111V101.087H94.9859C95.4155 101.087 95.812 101.021 96.2085 100.856C96.605 100.707 96.9355 100.459 97.1998 100.096C97.4642 100.492 97.7946 100.757 98.1746 100.889C98.5546 101.021 98.9842 101.087 99.4468 101.087H99.9755V99.7983H98.9181C98.4885 99.7983 98.2076 99.7157 98.0424 99.5339C97.8772 99.3522 97.7946 99.0713 97.7946 98.6748ZM96.0763 103.35C96.0763 103.615 96.1589 103.83 96.3572 104.011C96.5389 104.21 96.7537 104.292 97.0181 104.292C97.2824 104.292 97.4972 104.21 97.6955 104.011C97.8772 103.83 97.9763 103.615 97.9763 103.35C97.9763 103.086 97.8772 102.871 97.6955 102.673C97.4972 102.491 97.2824 102.392 97.0181 102.392C96.7537 102.392 96.5389 102.491 96.3572 102.673C96.1589 102.871 96.0763 103.086 96.0763 103.35ZM101.921 88.0183V97.9974C101.921 98.3278 101.888 98.6087 101.839 98.84C101.789 99.0713 101.706 99.2696 101.574 99.4018C101.442 99.5339 101.26 99.6331 101.029 99.6991C100.798 99.7652 100.517 99.7983 100.153 99.7983H99.6743V101.087H100.649C101.013 101.087 101.36 101.037 101.69 100.922C102.02 100.806 102.318 100.624 102.582 100.393C102.846 100.162 103.045 99.8478 103.21 99.4678C103.375 99.1044 103.458 98.6418 103.458 98.1131V88.0183H101.921ZM105.608 101.087H107.145V88.0183H105.608V101.087ZM112.674 99.7983V101.087H120.819V99.7983H119.051V97.5844C119.051 97.1052 118.952 96.6591 118.77 96.2296C118.572 95.8165 118.324 95.4531 117.994 95.1391C117.663 94.8252 117.3 94.5774 116.87 94.3957C116.441 94.2305 115.978 94.1313 115.499 94.1313H113.715V95.2713H115.35C115.648 95.2713 115.929 95.3374 116.193 95.4365C116.457 95.5522 116.672 95.7009 116.87 95.8991C117.069 96.0974 117.217 96.3122 117.333 96.5765C117.449 96.8409 117.515 97.1218 117.515 97.4191V99.7983H112.674ZM124.304 98.6748V94.8583H122.767V97.9974C122.767 98.3278 122.734 98.6087 122.684 98.84C122.635 99.0713 122.552 99.2696 122.42 99.4018C122.288 99.5339 122.106 99.6331 121.875 99.6991C121.644 99.7652 121.363 99.7983 120.999 99.7983H120.52V101.087H121.495C121.924 101.087 122.321 101.021 122.718 100.856C123.114 100.707 123.444 100.459 123.709 100.096C123.973 100.492 124.304 100.757 124.684 100.889C125.064 101.021 125.493 101.087 125.956 101.087H126.484V99.7983H125.427C124.998 99.7983 124.717 99.7157 124.551 99.5339C124.386 99.3522 124.304 99.0713 124.304 98.6748ZM121.247 103.383C121.247 103.648 121.33 103.863 121.528 104.044C121.71 104.243 121.924 104.325 122.189 104.325C122.453 104.325 122.668 104.243 122.866 104.044C123.048 103.863 123.147 103.648 123.147 103.383C123.147 103.119 123.048 102.904 122.866 102.706C122.668 102.524 122.453 102.425 122.189 102.425C121.924 102.425 121.71 102.524 121.528 102.706C121.33 102.904 121.247 103.119 121.247 103.383ZM123.791 103.383C123.791 103.648 123.874 103.863 124.072 104.044C124.254 104.243 124.469 104.325 124.733 104.325C124.998 104.325 125.212 104.243 125.411 104.044C125.592 103.863 125.691 103.648 125.691 103.383C125.691 103.119 125.592 102.904 125.411 102.706C125.212 102.524 124.998 102.425 124.733 102.425C124.469 102.425 124.254 102.524 124.072 102.706C123.874 102.904 123.791 103.119 123.791 103.383ZM127.109 94.6765V95.5852H132.098C132.379 95.5852 132.643 95.6348 132.891 95.7339C133.122 95.8331 133.337 95.9818 133.519 96.147C133.701 96.3122 133.849 96.527 133.949 96.7583C134.048 97.0061 134.114 97.2705 134.114 97.5678V99.7983H126.183V101.087H135.634V97.7165C135.634 97.2539 135.535 96.8244 135.369 96.4278C135.188 96.0313 134.94 95.6844 134.642 95.387C134.329 95.0896 133.965 94.8583 133.552 94.6931C133.139 94.5278 132.709 94.4287 132.247 94.4287H128.48L134.808 88.8939L134.411 88.4313L133.965 87.8861L128.116 93.0244C127.852 93.2557 127.621 93.5035 127.406 93.8009C127.191 94.0983 127.092 94.3957 127.109 94.6765ZM139.317 97.9974V88.0183H137.78V98.1131C137.78 98.6418 137.847 99.1044 138.012 99.4678C138.177 99.8478 138.375 100.162 138.64 100.393C138.904 100.624 139.201 100.806 139.532 100.922C139.862 101.037 140.226 101.087 140.589 101.087H141.432L141.415 99.7983H141.085C140.721 99.7983 140.424 99.7652 140.193 99.6991C139.961 99.6331 139.796 99.5339 139.664 99.4018C139.532 99.2696 139.433 99.0713 139.383 98.84C139.333 98.6087 139.317 98.3278 139.317 97.9974ZM139.763 87.1261V86.4322H139.218C138.854 86.4322 138.623 86.3661 138.507 86.2174C138.375 86.0687 138.326 85.9035 138.326 85.7052C138.326 85.5235 138.375 85.3583 138.507 85.2096C138.64 85.0774 138.838 84.9948 139.119 84.9948H139.647V84.1852H138.871C138.673 84.1852 138.474 84.2348 138.309 84.3009C138.127 84.3835 137.979 84.4826 137.847 84.6148C137.714 84.747 137.599 84.8957 137.533 85.0609C137.45 85.2261 137.417 85.4078 137.417 85.5731C137.417 85.6722 137.433 85.8044 137.467 85.9365C137.5 86.0852 137.582 86.2505 137.698 86.4322H136.938V87.1261H139.763ZM143.387 94.8583V97.9974C143.387 98.3278 143.354 98.6087 143.304 98.84C143.255 99.0713 143.172 99.2696 143.04 99.4018C142.908 99.5339 142.726 99.6331 142.495 99.6991C142.263 99.7652 141.983 99.7983 141.619 99.7983H141.14V101.087H142.115C142.478 101.087 142.825 101.037 143.156 100.922C143.486 100.806 143.783 100.624 144.048 100.393C144.312 100.162 144.51 99.8478 144.676 99.4678C144.841 99.1044 144.923 98.6418 144.923 98.1131V94.8583H143.387ZM140.909 91.8183C140.909 92.0826 140.991 92.2974 141.19 92.4791C141.371 92.6774 141.586 92.76 141.85 92.76C142.115 92.76 142.33 92.6774 142.528 92.4791C142.71 92.2974 142.809 92.0826 142.809 91.8183C142.809 91.5539 142.71 91.3391 142.528 91.1409C142.33 90.9591 142.115 90.86 141.85 90.86C141.586 90.86 141.371 90.9591 141.19 91.1409C140.991 91.3391 140.909 91.5539 140.909 91.8183ZM143.453 91.8183C143.453 92.0826 143.536 92.2974 143.734 92.4791C143.916 92.6774 144.13 92.76 144.395 92.76C144.659 92.76 144.874 92.6774 145.072 92.4791C145.254 92.2974 145.353 92.0826 145.353 91.8183C145.353 91.5539 145.254 91.3391 145.072 91.1409C144.874 90.9591 144.659 90.86 144.395 90.86C144.13 90.86 143.916 90.9591 143.734 91.1409C143.536 91.3391 143.453 91.5539 143.453 91.8183Z" fill="white"/>
    <circle cx="73.0435" cy="33.0435" r="33.0435" fill="#309561"/>
    <path d="M78.5437 24H68.5437C65.5437 24 63.5437 25.5 63.5437 29V36C63.5437 39.5 65.5437 41 68.5437 41H72.1137C72.7037 41 73.1837 40.48 73.1037 39.89C73.0037 39.18 73.0237 38.44 73.1737 37.68C73.7037 35.08 75.8437 33.01 78.4637 32.58C79.7737 32.37 81.0237 32.55 82.1237 33.03C82.7937 33.32 83.5437 32.86 83.5437 32.13V29C83.5437 25.5 81.5437 24 78.5437 24ZM79.0137 29.59L75.8837 32.09C75.2237 32.62 74.3837 32.88 73.5437 32.88C72.7037 32.88 71.8537 32.62 71.2037 32.09L68.0737 29.59C67.7537 29.33 67.7037 28.86 67.9537 28.53C68.2137 28.21 68.6837 28.15 69.0037 28.41L72.1337 30.91C72.8937 31.52 74.1837 31.52 74.9437 30.91L78.0737 28.41C78.3937 28.15 78.8737 28.2 79.1237 28.53C79.3837 28.86 79.3337 29.33 79.0137 29.59Z" fill="white"/>
    <path d="M79.5432 33.9999C76.7832 33.9999 74.5432 36.2299 74.5432 38.9999C74.5432 41.7599 76.7832 43.9999 79.5432 43.9999C82.3132 43.9999 84.5432 41.7599 84.5432 38.9999C84.5432 36.2299 82.3132 33.9999 79.5432 33.9999ZM81.5932 38.5499L81.2232 38.9099L79.0432 41.0999C78.9432 41.1899 78.7532 41.2899 78.6132 41.3099L77.6332 41.4499C77.2832 41.4999 77.0332 41.2499 77.0832 40.8999L77.2232 39.9199C77.2432 39.7799 77.3332 39.5899 77.4332 39.4899L79.6132 37.3199L79.9732 36.9499C80.2132 36.7099 80.4832 36.5499 80.7632 36.5499C81.0032 36.5499 81.2732 36.6599 81.5732 36.9499C82.2432 37.5999 82.0332 38.1099 81.5932 38.5499Z" fill="white"/>
    <circle cx="85.5444" cy="44.9993" r="6" fill="#309561"/>
    <path d="M79.5442 33.7495C76.6436 33.7495 74.2942 36.0988 74.2942 38.9995C74.2942 39.9838 74.5698 40.9157 75.0554 41.7032C75.9611 43.2257 77.6279 44.2495 79.5442 44.2495C81.4604 44.2495 83.1273 43.2257 84.0329 41.7032C84.5186 40.9157 84.7942 39.9838 84.7942 38.9995C84.7942 36.0988 82.4448 33.7495 79.5442 33.7495ZM82.1298 38.5663L79.3342 41.1519C79.1504 41.3226 78.9011 41.4145 78.6648 41.4145C78.4154 41.4145 78.1661 41.3226 77.9692 41.1257L76.6698 39.8263C76.2892 39.4457 76.2892 38.8157 76.6698 38.4351C77.0504 38.0545 77.6804 38.0545 78.0611 38.4351L78.6911 39.0651L80.7911 37.1226C81.1848 36.7551 81.8148 36.7813 82.1823 37.1751C82.5498 37.5688 82.5236 38.1988 82.1298 38.5663Z" fill="white"/>
    <path d="M248.888 267.156C248.888 267.651 248.971 268.114 249.152 268.543C249.334 268.973 249.582 269.353 249.912 269.683C250.243 270.014 250.623 270.278 251.085 270.476C251.532 270.675 252.027 270.757 252.572 270.757C253.052 270.757 253.514 270.675 253.944 270.476C254.373 270.278 254.737 270.014 255.067 269.683C255.398 269.353 255.645 268.973 255.844 268.543C256.025 268.114 256.125 267.651 256.125 267.156V263.653H252.44C251.945 263.653 251.499 263.752 251.069 263.934C250.639 264.116 250.259 264.363 249.929 264.677C249.599 264.991 249.351 265.355 249.169 265.784C248.971 266.214 248.888 266.676 248.888 267.156ZM250.392 267.321C250.392 266.99 250.441 266.676 250.54 266.379C250.639 266.082 250.772 265.834 250.953 265.619C251.119 265.404 251.333 265.239 251.598 265.123C251.845 265.008 252.126 264.942 252.424 264.942H254.588V267.321C254.588 267.618 254.522 267.899 254.406 268.163C254.291 268.428 254.142 268.659 253.944 268.857C253.745 269.056 253.531 269.204 253.266 269.303C253.002 269.419 252.721 269.469 252.424 269.469C252.126 269.469 251.845 269.419 251.598 269.303C251.333 269.204 251.119 269.056 250.953 268.857C250.772 268.659 250.639 268.428 250.54 268.163C250.441 267.899 250.392 267.618 250.392 267.321ZM250.772 261.34C250.772 261.604 250.854 261.819 251.052 262.001C251.234 262.199 251.449 262.282 251.713 262.282C251.978 262.282 252.192 262.199 252.391 262.001C252.572 261.819 252.672 261.604 252.672 261.34C252.672 261.076 252.572 260.861 252.391 260.663C252.192 260.481 251.978 260.382 251.713 260.382C251.449 260.382 251.234 260.481 251.052 260.663C250.854 260.861 250.772 261.076 250.772 261.34ZM253.316 261.34C253.316 261.604 253.399 261.819 253.597 262.001C253.779 262.199 253.993 262.282 254.258 262.282C254.522 262.282 254.737 262.199 254.935 262.001C255.117 261.819 255.216 261.604 255.216 261.34C255.216 261.076 255.117 260.861 254.935 260.663C254.737 260.481 254.522 260.382 254.258 260.382C253.993 260.382 253.779 260.481 253.597 260.663C253.399 260.861 253.316 261.076 253.316 261.34ZM258.126 274.095H258.721C259.415 274.095 259.944 273.88 260.34 273.417C260.72 272.955 260.919 272.36 260.919 271.633V264.38H259.366V271.567C259.366 271.93 259.283 272.228 259.134 272.426C258.969 272.624 258.688 272.723 258.292 272.723H257.697C257.565 272.723 257.466 272.723 257.383 272.707C257.3 272.707 257.234 272.69 257.201 272.674V273.979C257.251 274.012 257.35 274.029 257.482 274.062C257.614 274.095 257.829 274.095 258.126 274.095ZM263.063 270.609H264.6V257.54H263.063V270.609ZM265.998 269.32V270.609H272.376V267.106C272.376 266.627 272.277 266.181 272.095 265.751C271.897 265.338 271.649 264.975 271.318 264.661C270.988 264.347 270.624 264.099 270.195 263.917C269.765 263.752 269.303 263.653 268.824 263.653H267.039V264.793H268.675C268.972 264.793 269.253 264.859 269.518 264.958C269.782 265.074 269.997 265.223 270.195 265.421C270.393 265.619 270.542 265.834 270.658 266.098C270.773 266.363 270.839 266.643 270.839 266.941V269.32H265.998ZM281.53 257.54V267.519C281.53 267.85 281.497 268.13 281.447 268.362C281.398 268.593 281.315 268.791 281.183 268.923C281.051 269.056 280.869 269.155 280.638 269.221C280.406 269.287 280.125 269.32 279.762 269.32H278.655V262.199H277.118V269.32H273.698V270.609H280.258C280.621 270.609 280.968 270.559 281.298 270.443C281.629 270.328 281.926 270.146 282.191 269.915C282.455 269.683 282.653 269.37 282.818 268.99C282.984 268.626 283.066 268.163 283.066 267.635V257.54H281.53ZM279.068 274.475V273.781H278.523C278.159 273.781 277.928 273.715 277.812 273.566C277.68 273.417 277.631 273.252 277.631 273.054C277.631 272.872 277.68 272.707 277.812 272.558C277.945 272.426 278.143 272.343 278.424 272.343H278.952V271.534H278.176C277.978 271.534 277.779 271.583 277.614 271.65C277.432 271.732 277.284 271.831 277.151 271.963C277.019 272.096 276.904 272.244 276.838 272.41C276.755 272.575 276.722 272.756 276.722 272.922C276.722 273.021 276.738 273.153 276.771 273.285C276.805 273.434 276.887 273.599 277.003 273.781H276.243V274.475H279.068ZM285.216 270.609H286.752V257.54H285.216V270.609ZM293.455 267.321C293.455 266.99 293.504 266.676 293.603 266.379C293.702 266.082 293.835 265.834 294.016 265.619C294.182 265.404 294.396 265.239 294.661 265.123C294.908 265.008 295.189 264.942 295.487 264.942H297.651V267.321C297.651 267.618 297.585 267.899 297.469 268.163C297.354 268.428 297.205 268.659 297.007 268.857C296.808 269.056 296.594 269.204 296.329 269.303C296.065 269.419 295.784 269.469 295.487 269.469C295.189 269.469 294.908 269.419 294.661 269.303C294.396 269.204 294.182 269.056 294.016 268.857C293.835 268.659 293.702 268.428 293.603 268.163C293.504 267.899 293.455 267.618 293.455 267.321ZM298.064 269.816C298.229 270.014 298.444 270.196 298.725 270.361C299.006 270.526 299.353 270.609 299.782 270.609H300.889V269.32H299.799C299.601 269.32 299.452 269.27 299.353 269.171C299.237 269.072 299.188 268.824 299.188 268.428V263.653H295.503C295.008 263.653 294.562 263.752 294.132 263.934C293.702 264.116 293.322 264.363 292.992 264.677C292.662 264.991 292.414 265.355 292.232 265.784C292.034 266.214 291.951 266.676 291.951 267.156C291.951 267.651 292.034 268.114 292.215 268.543C292.397 268.973 292.645 269.353 292.975 269.683C293.306 270.014 293.686 270.278 294.148 270.476C294.595 270.675 295.09 270.757 295.635 270.757C296.098 270.757 296.528 270.675 296.957 270.51C297.37 270.344 297.734 270.113 298.064 269.816ZM293.835 261.34C293.835 261.604 293.917 261.819 294.115 262.001C294.297 262.199 294.512 262.282 294.776 262.282C295.041 262.282 295.255 262.199 295.454 262.001C295.635 261.819 295.735 261.604 295.735 261.34C295.735 261.076 295.635 260.861 295.454 260.663C295.255 260.481 295.041 260.382 294.776 260.382C294.512 260.382 294.297 260.481 294.115 260.663C293.917 260.861 293.835 261.076 293.835 261.34ZM296.379 261.34C296.379 261.604 296.462 261.819 296.66 262.001C296.842 262.199 297.056 262.282 297.321 262.282C297.585 262.282 297.8 262.199 297.998 262.001C298.18 261.819 298.279 261.604 298.279 261.34C298.279 261.076 298.18 260.861 297.998 260.663C297.8 260.481 297.585 260.382 297.321 260.382C297.056 260.382 296.842 260.481 296.66 260.663C296.462 260.861 296.379 261.076 296.379 261.34ZM300.596 269.32V270.609H310.294V269.32H308.956V267.106C308.956 266.627 308.857 266.164 308.675 265.735C308.477 265.305 308.229 264.909 307.898 264.578C307.568 264.248 307.204 264 306.775 263.802C306.345 263.603 305.883 263.504 305.404 263.504C304.858 263.504 304.363 263.603 303.917 263.802C303.454 264 303.074 264.248 302.744 264.578C302.413 264.909 302.165 265.305 301.984 265.735C301.802 266.164 301.719 266.627 301.719 267.106C301.719 267.536 301.785 267.932 301.917 268.312C302.05 268.692 302.248 269.023 302.512 269.32H300.596ZM303.223 266.941C303.223 266.643 303.272 266.363 303.371 266.098C303.47 265.834 303.603 265.619 303.784 265.421C303.95 265.223 304.164 265.074 304.429 264.958C304.677 264.859 304.957 264.793 305.255 264.793C305.552 264.793 305.833 264.859 306.097 264.958C306.362 265.074 306.577 265.223 306.775 265.421C306.973 265.619 307.122 265.834 307.237 266.098C307.353 266.363 307.419 266.643 307.419 266.941V269.32H305.156C304.561 269.303 304.098 269.072 303.751 268.626C303.388 268.196 303.223 267.635 303.223 266.941ZM303.107 261.34C303.107 261.604 303.19 261.819 303.388 262.001C303.57 262.199 303.784 262.282 304.049 262.282C304.313 262.282 304.528 262.199 304.726 262.001C304.908 261.819 305.007 261.604 305.007 261.34C305.007 261.076 304.908 260.861 304.726 260.663C304.528 260.481 304.313 260.382 304.049 260.382C303.784 260.382 303.57 260.481 303.388 260.663C303.19 260.861 303.107 261.076 303.107 261.34ZM305.651 261.34C305.651 261.604 305.734 261.819 305.932 262.001C306.114 262.199 306.329 262.282 306.593 262.282C306.857 262.282 307.072 262.199 307.27 262.001C307.452 261.819 307.551 261.604 307.551 261.34C307.551 261.076 307.452 260.861 307.27 260.663C307.072 260.481 306.857 260.382 306.593 260.382C306.329 260.382 306.114 260.481 305.932 260.663C305.734 260.861 305.651 261.076 305.651 261.34ZM310.002 269.32V270.609H314.529H314.678H318.362V267.106C318.362 266.627 318.263 266.164 318.081 265.735C317.883 265.305 317.635 264.909 317.305 264.578C316.974 264.248 316.611 264 316.181 263.802C315.752 263.603 315.289 263.504 314.81 263.504C314.265 263.504 313.769 263.603 313.323 263.802C312.86 264 312.48 264.248 312.15 264.578C311.82 264.909 311.572 265.305 311.39 265.735C311.208 266.164 311.126 266.627 311.126 267.106C311.126 267.536 311.192 267.932 311.324 268.312C311.456 268.692 311.654 269.023 311.919 269.32H310.002ZM312.629 266.941C312.629 266.643 312.679 266.363 312.778 266.098C312.877 265.834 313.009 265.619 313.191 265.421C313.356 265.223 313.571 265.074 313.835 264.958C314.083 264.859 314.364 264.793 314.661 264.793C314.959 264.793 315.24 264.859 315.504 264.958C315.768 265.074 315.983 265.223 316.181 265.421C316.38 265.619 316.528 265.834 316.644 266.098C316.76 266.363 316.826 266.643 316.826 266.941V269.32H314.661C314.364 269.32 314.083 269.27 313.835 269.155C313.571 269.039 313.356 268.874 313.191 268.659C313.009 268.444 312.877 268.196 312.778 267.899C312.679 267.618 312.629 267.304 312.629 266.941ZM313.967 261.34C313.967 261.604 314.05 261.819 314.248 262.001C314.43 262.199 314.645 262.282 314.909 262.282C315.173 262.282 315.388 262.199 315.586 262.001C315.768 261.819 315.867 261.604 315.867 261.34C315.867 261.076 315.768 260.861 315.586 260.663C315.388 260.481 315.173 260.382 314.909 260.382C314.645 260.382 314.43 260.481 314.248 260.663C314.05 260.861 313.967 261.076 313.967 261.34ZM320.421 270.609H321.958V257.54H320.421V270.609ZM326.991 270.609H329.139C329.139 271.005 329.057 271.352 328.924 271.616C328.792 271.897 328.577 272.129 328.28 272.294C327.983 272.459 327.586 272.591 327.107 272.657C326.628 272.74 326.05 272.773 325.389 272.773H325.009V274.062H325.306C326.149 274.062 326.909 273.996 327.57 273.863C328.231 273.731 328.792 273.533 329.255 273.269C329.717 273.004 330.064 272.657 330.312 272.228C330.544 271.798 330.676 271.286 330.676 270.691V270.609H332.113V269.32H330.676V267.106C330.676 266.627 330.577 266.164 330.395 265.735C330.197 265.305 329.949 264.909 329.618 264.578C329.288 264.248 328.924 264 328.495 263.802C328.065 263.603 327.603 263.504 327.124 263.504C326.578 263.504 326.083 263.603 325.637 263.802C325.174 264 324.794 264.248 324.464 264.578C324.133 264.909 323.885 265.305 323.704 265.735C323.522 266.164 323.439 266.627 323.439 267.106C323.439 267.602 323.522 268.048 323.72 268.477C323.902 268.907 324.15 269.287 324.48 269.601C324.811 269.915 325.191 270.163 325.62 270.344C326.05 270.526 326.496 270.609 326.991 270.609ZM324.943 266.941C324.943 266.643 324.992 266.363 325.091 266.098C325.191 265.834 325.323 265.619 325.504 265.421C325.67 265.223 325.884 265.074 326.149 264.958C326.397 264.859 326.677 264.793 326.975 264.793C327.272 264.793 327.553 264.859 327.817 264.958C328.082 265.074 328.297 265.223 328.495 265.421C328.693 265.619 328.842 265.834 328.957 266.098C329.073 266.363 329.139 266.643 329.139 266.941V269.32H326.975C326.677 269.32 326.397 269.27 326.149 269.155C325.884 269.039 325.67 268.874 325.504 268.659C325.323 268.444 325.191 268.196 325.091 267.899C324.992 267.618 324.943 267.304 324.943 266.941ZM331.816 269.32V270.609H336.624C337.103 270.609 337.566 270.526 337.995 270.344C338.425 270.163 338.788 269.915 339.119 269.601C339.449 269.287 339.697 268.907 339.895 268.477C340.077 268.048 340.176 267.602 340.176 267.106C340.176 266.627 340.077 266.164 339.895 265.735C339.713 265.305 339.466 264.909 339.135 264.578C338.805 264.248 338.425 264 337.979 263.802C337.516 263.603 337.02 263.504 336.492 263.504C335.996 263.504 335.533 263.603 335.104 263.802C334.674 264 334.294 264.248 333.98 264.578C333.65 264.909 333.402 265.305 333.22 265.735C333.022 266.164 332.939 266.627 332.939 267.106V269.32H331.816ZM338.672 266.941C338.672 267.304 338.623 267.618 338.524 267.899C338.425 268.196 338.276 268.444 338.111 268.659C337.929 268.874 337.714 269.039 337.466 269.155C337.202 269.27 336.938 269.32 336.64 269.32H334.476V266.941C334.476 266.643 334.526 266.363 334.641 266.098C334.757 265.834 334.906 265.619 335.104 265.421C335.302 265.223 335.533 265.074 335.798 264.958C336.062 264.859 336.343 264.793 336.64 264.793C336.938 264.793 337.202 264.859 337.466 264.958C337.714 265.074 337.929 265.223 338.111 265.421C338.276 265.619 338.425 265.834 338.524 266.098C338.623 266.363 338.672 266.643 338.672 266.941Z" fill="white"/>
    <circle cx="294.043" cy="203.043" r="33.0435" fill="#309561"/>
    <path d="M287 204.5C284.79 204.5 283 206.29 283 208.5C283 209.25 283.21 209.96 283.58 210.56C284.27 211.72 285.54 212.5 287 212.5C288.46 212.5 289.73 211.72 290.42 210.56C290.79 209.96 291 209.25 291 208.5C291 206.29 289.21 204.5 287 204.5ZM288.97 208.17L286.84 210.14C286.7 210.27 286.51 210.34 286.33 210.34C286.14 210.34 285.95 210.27 285.8 210.12L284.81 209.13C284.52 208.84 284.52 208.36 284.81 208.07C285.1 207.78 285.58 207.78 285.87 208.07L286.35 208.55L287.95 207.07C288.25 206.79 288.73 206.81 289.01 207.11C289.29 207.41 289.27 207.89 288.97 208.17Z" fill="white"/>
    <path d="M299.25 193.43H289.75C286.9 193.43 285 195.33 285 198.18V202.64C285 202.99 285.36 203.24 285.7 203.15C286.12 203.05 286.55 203 287 203C289.86 203 292.22 205.32 292.48 208.13C292.5 208.41 292.73 208.63 293 208.63H293.55L297.78 211.45C298.4 211.87 299.25 211.41 299.25 210.65V208.63C300.67 208.63 301.86 208.15 302.69 207.33C303.52 206.49 304 205.3 304 203.88V198.18C304 195.33 302.1 193.43 299.25 193.43ZM297.83 201.81H291.17C290.78 201.81 290.46 201.49 290.46 201.1C290.46 200.7 290.78 200.38 291.17 200.38H297.83C298.22 200.38 298.54 200.7 298.54 201.1C298.54 201.49 298.22 201.81 297.83 201.81Z" fill="white"/>
    <path d="M19.7337 275.763H21.2702V272.641C21.2702 272.343 21.3198 272.079 21.4354 271.831C21.5346 271.583 21.6832 271.369 21.8815 271.187C22.0632 271.022 22.278 270.873 22.5424 270.774C22.7902 270.675 23.0546 270.625 23.3519 270.609H27.0363C27.3998 270.609 27.7632 270.543 28.1598 270.394C28.5563 270.262 28.8867 270.096 29.1841 269.898C29.465 270.179 29.7459 270.361 30.0432 270.46C30.3406 270.559 30.7041 270.609 31.1502 270.609H31.8772V269.32H30.5224C30.3902 269.32 30.258 269.32 30.1589 269.287L29.878 269.204C30.0928 268.923 30.258 268.61 30.3902 268.246C30.5224 267.883 30.5885 267.503 30.5885 267.106C30.5885 266.627 30.4893 266.164 30.3076 265.735C30.1259 265.305 29.878 264.909 29.5476 264.578C29.2172 264.248 28.8372 264 28.3911 263.802C27.9285 263.603 27.4328 263.504 26.9041 263.504C26.4085 263.504 25.9459 263.603 25.5163 263.802C25.0867 264 24.7067 264.248 24.3928 264.578C24.0624 264.909 23.8146 265.305 23.6328 265.735C23.4346 266.164 23.3519 266.627 23.3519 267.106V269.32H23.2859C22.7076 269.32 22.1954 269.419 21.7659 269.601C21.3198 269.783 20.9398 270.03 20.6424 270.344C20.345 270.658 20.1137 271.022 19.965 271.451C19.7998 271.881 19.7337 272.327 19.7337 272.806V275.763ZM29.085 266.941C29.085 267.304 29.0354 267.618 28.9363 267.899C28.8372 268.196 28.6885 268.444 28.5232 268.659C28.3415 268.874 28.1267 269.039 27.8789 269.155C27.6146 269.27 27.3502 269.32 27.0528 269.32H24.8885V266.941C24.8885 266.643 24.938 266.363 25.0537 266.098C25.1693 265.834 25.318 265.619 25.5163 265.421C25.7146 265.223 25.9459 265.074 26.2102 264.958C26.4746 264.859 26.7554 264.793 27.0528 264.793C27.3502 264.793 27.6146 264.859 27.8789 264.958C28.1267 265.074 28.3415 265.223 28.5232 265.421C28.6885 265.619 28.8372 265.834 28.9363 266.098C29.0354 266.363 29.085 266.643 29.085 266.941ZM35.3602 268.196V264.38H33.8236V267.519C33.8236 267.85 33.7906 268.13 33.741 268.362C33.6915 268.593 33.6088 268.791 33.4767 268.923C33.3445 269.056 33.1628 269.155 32.9315 269.221C32.7002 269.287 32.4193 269.32 32.0558 269.32H31.5767V270.609H32.5515C32.981 270.609 33.3775 270.543 33.7741 270.377C34.1706 270.229 34.501 269.981 34.7654 269.617C35.0297 270.014 35.3602 270.278 35.7402 270.41C36.1202 270.543 36.5497 270.609 37.0123 270.609H37.541V269.32H36.4836C36.0541 269.32 35.7732 269.237 35.608 269.056C35.4428 268.874 35.3602 268.593 35.3602 268.196ZM32.3036 272.905C32.3036 273.17 32.3862 273.384 32.5845 273.566C32.7662 273.764 32.981 273.847 33.2454 273.847C33.5097 273.847 33.7245 273.764 33.9228 273.566C34.1045 273.384 34.2036 273.17 34.2036 272.905C34.2036 272.641 34.1045 272.426 33.9228 272.228C33.7245 272.046 33.5097 271.947 33.2454 271.947C32.981 271.947 32.7662 272.046 32.5845 272.228C32.3862 272.426 32.3036 272.641 32.3036 272.905ZM34.848 272.905C34.848 273.17 34.9306 273.384 35.1288 273.566C35.3106 273.764 35.5254 273.847 35.7897 273.847C36.0541 273.847 36.2688 273.764 36.4671 273.566C36.6488 273.384 36.748 273.17 36.748 272.905C36.748 272.641 36.6488 272.426 36.4671 272.228C36.2688 272.046 36.0541 271.947 35.7897 271.947C35.5254 271.947 35.3106 272.046 35.1288 272.228C34.9306 272.426 34.848 272.641 34.848 272.905ZM41.0234 268.196V264.38H39.4868V267.519C39.4868 267.85 39.4538 268.13 39.4042 268.362C39.3547 268.593 39.2721 268.791 39.1399 268.923C39.0077 269.056 38.826 269.155 38.5947 269.221C38.3634 269.287 38.0825 269.32 37.719 269.32H37.2399V270.609H38.2147C38.6442 270.609 39.0408 270.543 39.4373 270.377C39.8338 270.229 40.1642 269.981 40.4286 269.617C40.6929 270.014 41.0234 270.278 41.4034 270.41C41.7834 270.543 42.2129 270.609 42.6755 270.609H43.2042V269.32H42.1468C41.7173 269.32 41.4364 269.237 41.2712 269.056C41.106 268.874 41.0234 268.593 41.0234 268.196ZM37.9668 272.905C37.9668 273.17 38.0494 273.384 38.2477 273.566C38.4294 273.764 38.6442 273.847 38.9086 273.847C39.1729 273.847 39.3877 273.764 39.586 273.566C39.7677 273.384 39.8668 273.17 39.8668 272.905C39.8668 272.641 39.7677 272.426 39.586 272.228C39.3877 272.046 39.1729 271.947 38.9086 271.947C38.6442 271.947 38.4294 272.046 38.2477 272.228C38.0494 272.426 37.9668 272.641 37.9668 272.905ZM40.5112 272.905C40.5112 273.17 40.5938 273.384 40.7921 273.566C40.9738 273.764 41.1886 273.847 41.4529 273.847C41.7173 273.847 41.9321 273.764 42.1303 273.566C42.3121 273.384 42.4112 273.17 42.4112 272.905C42.4112 272.641 42.3121 272.426 42.1303 272.228C41.9321 272.046 41.7173 271.947 41.4529 271.947C41.1886 271.947 40.9738 272.046 40.7921 272.228C40.5938 272.426 40.5112 272.641 40.5112 272.905ZM42.9031 269.32V270.609H52.6014V269.32H51.2631V267.106C51.2631 266.627 51.164 266.164 50.9822 265.735C50.784 265.305 50.5361 264.909 50.2057 264.578C49.8753 264.248 49.5118 264 49.0822 263.802C48.6527 263.603 48.1901 263.504 47.7109 263.504C47.1657 263.504 46.6701 263.603 46.224 263.802C45.7614 264 45.3814 264.248 45.0509 264.578C44.7205 264.909 44.4727 265.305 44.2909 265.735C44.1092 266.164 44.0266 266.627 44.0266 267.106C44.0266 267.536 44.0927 267.932 44.2248 268.312C44.357 268.692 44.5553 269.023 44.8196 269.32H42.9031ZM45.5301 266.941C45.5301 266.643 45.5796 266.363 45.6788 266.098C45.7779 265.834 45.9101 265.619 46.0918 265.421C46.257 265.223 46.4718 265.074 46.7361 264.958C46.984 264.859 47.2648 264.793 47.5622 264.793C47.8596 264.793 48.1405 264.859 48.4048 264.958C48.6692 265.074 48.884 265.223 49.0822 265.421C49.2805 265.619 49.4292 265.834 49.5448 266.098C49.6605 266.363 49.7266 266.643 49.7266 266.941V269.32H47.4631C46.8683 269.303 46.4057 269.072 46.0588 268.626C45.6953 268.196 45.5301 267.635 45.5301 266.941ZM45.4144 261.34C45.4144 261.604 45.497 261.819 45.6953 262.001C45.877 262.199 46.0918 262.282 46.3561 262.282C46.6205 262.282 46.8353 262.199 47.0335 262.001C47.2153 261.819 47.3144 261.604 47.3144 261.34C47.3144 261.076 47.2153 260.861 47.0335 260.663C46.8353 260.481 46.6205 260.382 46.3561 260.382C46.0918 260.382 45.877 260.481 45.6953 260.663C45.497 260.861 45.4144 261.076 45.4144 261.34ZM47.9588 261.34C47.9588 261.604 48.0414 261.819 48.2396 262.001C48.4214 262.199 48.6361 262.282 48.9005 262.282C49.1648 262.282 49.3796 262.199 49.5779 262.001C49.7596 261.819 49.8588 261.604 49.8588 261.34C49.8588 261.076 49.7596 260.861 49.5779 260.663C49.3796 260.481 49.1648 260.382 48.9005 260.382C48.6361 260.382 48.4214 260.481 48.2396 260.663C48.0414 260.861 47.9588 261.076 47.9588 261.34ZM56.093 268.196V264.38H54.5565V267.519C54.5565 267.85 54.5234 268.13 54.4739 268.362C54.4243 268.593 54.3417 268.791 54.2095 268.923C54.0773 269.056 53.8956 269.155 53.6643 269.221C53.433 269.287 53.1521 269.32 52.7886 269.32H52.3095V270.609H53.2843C53.7139 270.609 54.1104 270.543 54.5069 270.377C54.9034 270.229 55.2339 269.981 55.4982 269.617C55.7626 270.014 56.093 270.278 56.473 270.41C56.853 270.543 57.2826 270.609 57.7452 270.609H58.2739V269.32H57.2165C56.7869 269.32 56.506 269.237 56.3408 269.056C56.1756 268.874 56.093 268.593 56.093 268.196ZM53.1356 261.34C53.1356 261.604 53.2182 261.819 53.4165 262.001C53.5982 262.199 53.813 262.282 54.0773 262.282C54.3417 262.282 54.5565 262.199 54.7547 262.001C54.9365 261.819 55.0356 261.604 55.0356 261.34C55.0356 261.076 54.9365 260.861 54.7547 260.663C54.5565 260.481 54.3417 260.382 54.0773 260.382C53.813 260.382 53.5982 260.481 53.4165 260.663C53.2182 260.861 53.1356 261.076 53.1356 261.34ZM55.68 261.34C55.68 261.604 55.7626 261.819 55.9608 262.001C56.1426 262.199 56.3573 262.282 56.6217 262.282C56.886 262.282 57.1008 262.199 57.2991 262.001C57.4808 261.819 57.58 261.604 57.58 261.34C57.58 261.076 57.4808 260.861 57.2991 260.663C57.1008 260.481 56.886 260.382 56.6217 260.382C56.3573 260.382 56.1426 260.481 55.9608 260.663C55.7626 260.861 55.68 261.076 55.68 261.34ZM60.2197 257.54V267.519C60.2197 267.85 60.1866 268.13 60.1371 268.362C60.0875 268.593 60.0049 268.791 59.8727 268.923C59.7406 269.056 59.5588 269.155 59.3275 269.221C59.0962 269.287 58.8153 269.32 58.4519 269.32H57.9727V270.609H58.9475C59.311 270.609 59.658 270.559 59.9884 270.443C60.3188 270.328 60.6162 270.146 60.8806 269.915C61.1449 269.683 61.3432 269.37 61.5084 268.99C61.6736 268.626 61.7562 268.163 61.7562 267.635V257.54H60.2197ZM63.9066 270.609H65.4431V257.54H63.9066V270.609ZM74.194 274.062H76.2262C76.7053 274.062 77.1679 273.979 77.5975 273.781C78.027 273.583 78.3905 273.318 78.7209 272.988C79.0514 272.657 79.2992 272.277 79.4975 271.848C79.6792 271.418 79.7783 270.956 79.7783 270.46V268.064C79.7783 267.783 79.8279 267.503 79.9436 267.205C80.0427 266.908 80.1914 266.643 80.3896 266.412C80.5879 266.181 80.8192 265.999 81.0836 265.85C81.3479 265.718 81.6288 265.636 81.9262 265.636H82.0418V266.792C82.0418 267.288 82.1244 267.75 82.3227 268.213C82.5044 268.676 82.7522 269.089 83.0827 269.436C83.3966 269.799 83.7766 270.08 84.2062 270.295C84.6357 270.51 85.0983 270.609 85.594 270.609H86.3044V269.353H85.7427C85.4453 269.353 85.1644 269.287 84.9001 269.155C84.6357 269.023 84.4044 268.841 84.2062 268.61C84.0079 268.395 83.8592 268.147 83.7436 267.85C83.6279 267.552 83.5783 267.255 83.5783 266.957V264.38H81.9427C81.447 264.38 80.9844 264.479 80.5383 264.661C80.0922 264.843 79.6957 265.09 79.3653 265.404C79.0183 265.735 78.754 266.098 78.5557 266.528C78.3575 266.957 78.2583 267.42 78.2583 267.899V270.625C78.2583 270.923 78.1922 271.203 78.0766 271.468C77.9609 271.732 77.8122 271.963 77.614 272.162C77.4157 272.36 77.1844 272.509 76.9201 272.608C76.6557 272.723 76.3749 272.773 76.0775 272.773H74.3427C74.0453 272.773 73.7644 272.723 73.5001 272.608C73.2357 272.509 73.0044 272.36 72.8062 272.162C72.6079 271.963 72.4427 271.732 72.327 271.468C72.2114 271.203 72.1618 270.923 72.1618 270.625V266.049H70.6418V270.46C70.6418 270.956 70.7244 271.418 70.9227 271.848C71.1044 272.277 71.3522 272.657 71.6827 272.988C71.9966 273.318 72.3766 273.583 72.8062 273.781C73.2357 273.979 73.6983 274.062 74.194 274.062ZM73.1862 276.507C73.1862 276.771 73.2688 276.986 73.467 277.168C73.6488 277.366 73.8636 277.449 74.1279 277.449C74.3922 277.449 74.607 277.366 74.8053 277.168C74.987 276.986 75.0862 276.771 75.0862 276.507C75.0862 276.243 74.987 276.028 74.8053 275.83C74.607 275.648 74.3922 275.549 74.1279 275.549C73.8636 275.549 73.6488 275.648 73.467 275.83C73.2688 276.028 73.1862 276.243 73.1862 276.507ZM75.7305 276.507C75.7305 276.771 75.8131 276.986 76.0114 277.168C76.1931 277.366 76.4079 277.449 76.6722 277.449C76.9366 277.449 77.1514 277.366 77.3496 277.168C77.5314 276.986 77.6305 276.771 77.6305 276.507C77.6305 276.243 77.5314 276.028 77.3496 275.83C77.1514 275.648 76.9366 275.549 76.6722 275.549C76.4079 275.549 76.1931 275.648 76.0114 275.83C75.8131 276.028 75.7305 276.243 75.7305 276.507ZM86.0145 269.32V270.609H90.5415H90.6902H94.3745V267.106C94.3745 266.627 94.2754 266.164 94.0936 265.735C93.8954 265.305 93.6476 264.909 93.3171 264.578C92.9867 264.248 92.6232 264 92.1936 263.802C91.7641 263.603 91.3015 263.504 90.8223 263.504C90.2771 263.504 89.7815 263.603 89.3354 263.802C88.8728 264 88.4928 264.248 88.1623 264.578C87.8319 264.909 87.5841 265.305 87.4023 265.735C87.2206 266.164 87.138 266.627 87.138 267.106C87.138 267.536 87.2041 267.932 87.3363 268.312C87.4684 268.692 87.6667 269.023 87.931 269.32H86.0145ZM88.6415 266.941C88.6415 266.643 88.691 266.363 88.7902 266.098C88.8893 265.834 89.0215 265.619 89.2032 265.421C89.3684 265.223 89.5832 265.074 89.8476 264.958C90.0954 264.859 90.3763 264.793 90.6736 264.793C90.971 264.793 91.2519 264.859 91.5163 264.958C91.7806 265.074 91.9954 265.223 92.1936 265.421C92.3919 265.619 92.5406 265.834 92.6563 266.098C92.7719 266.363 92.838 266.643 92.838 266.941V269.32H90.6736C90.3763 269.32 90.0954 269.27 89.8476 269.155C89.5832 269.039 89.3684 268.874 89.2032 268.659C89.0215 268.444 88.8893 268.196 88.7902 267.899C88.691 267.618 88.6415 267.304 88.6415 266.941ZM89.9797 261.34C89.9797 261.604 90.0623 261.819 90.2606 262.001C90.4423 262.199 90.6571 262.282 90.9215 262.282C91.1858 262.282 91.4006 262.199 91.5989 262.001C91.7806 261.819 91.8797 261.604 91.8797 261.34C91.8797 261.076 91.7806 260.861 91.5989 260.663C91.4006 260.481 91.1858 260.382 90.9215 260.382C90.6571 260.382 90.4423 260.481 90.2606 260.663C90.0623 260.861 89.9797 261.076 89.9797 261.34ZM104.959 270.609V269.452H104.05C103.456 269.452 103.059 269.32 102.861 269.072C102.662 268.824 102.563 268.543 102.563 268.23C102.563 267.932 102.662 267.651 102.877 267.403C103.092 267.172 103.422 267.056 103.885 267.056H104.761V265.702H103.472C103.142 265.702 102.828 265.768 102.53 265.9C102.233 266.016 101.969 266.197 101.754 266.412C101.539 266.643 101.357 266.891 101.225 267.156C101.093 267.436 101.043 267.717 101.043 268.015C101.043 268.18 101.06 268.378 101.126 268.626C101.192 268.857 101.324 269.138 101.506 269.452H100.234V270.609H104.959ZM105.952 269.32V270.609H114.097V269.32H112.329V267.106C112.329 266.627 112.23 266.181 112.048 265.751C111.85 265.338 111.602 264.975 111.272 264.661C110.941 264.347 110.578 264.099 110.148 263.917C109.719 263.752 109.256 263.653 108.777 263.653H106.993V264.793H108.628C108.926 264.793 109.207 264.859 109.471 264.958C109.735 265.074 109.95 265.223 110.148 265.421C110.347 265.619 110.495 265.834 110.611 266.098C110.727 266.363 110.793 266.643 110.793 266.941V269.32H105.952ZM117.582 268.196V264.38H116.045V267.519C116.045 267.85 116.012 268.13 115.962 268.362C115.913 268.593 115.83 268.791 115.698 268.923C115.566 269.056 115.384 269.155 115.153 269.221C114.922 269.287 114.641 269.32 114.277 269.32H113.798V270.609H114.773C115.202 270.609 115.599 270.543 115.996 270.377C116.392 270.229 116.722 269.981 116.987 269.617C117.251 270.014 117.582 270.278 117.962 270.41C118.342 270.543 118.771 270.609 119.234 270.609H119.762V269.32H118.705C118.276 269.32 117.995 269.237 117.829 269.056C117.664 268.874 117.582 268.593 117.582 268.196ZM115.863 272.872C115.863 273.136 115.946 273.351 116.144 273.533C116.326 273.731 116.541 273.814 116.805 273.814C117.069 273.814 117.284 273.731 117.482 273.533C117.664 273.351 117.763 273.136 117.763 272.872C117.763 272.608 117.664 272.393 117.482 272.195C117.284 272.013 117.069 271.914 116.805 271.914C116.541 271.914 116.326 272.013 116.144 272.195C115.946 272.393 115.863 272.608 115.863 272.872ZM121.708 257.54V267.519C121.708 267.85 121.675 268.13 121.626 268.362C121.576 268.593 121.494 268.791 121.361 268.923C121.229 269.056 121.047 269.155 120.816 269.221C120.585 269.287 120.304 269.32 119.94 269.32H119.461V270.609H120.436C120.8 270.609 121.147 270.559 121.477 270.443C121.807 270.328 122.105 270.146 122.369 269.915C122.634 269.683 122.832 269.37 122.997 268.99C123.162 268.626 123.245 268.163 123.245 267.635V257.54H121.708ZM125.395 270.609H126.932V257.54H125.395V270.609ZM127.378 256.648V255.954H126.833C126.469 255.954 126.238 255.888 126.122 255.739C125.99 255.59 125.94 255.425 125.94 255.227C125.94 255.045 125.99 254.88 126.122 254.731C126.254 254.599 126.453 254.516 126.734 254.516H127.262V253.707H126.486C126.287 253.707 126.089 253.756 125.924 253.823C125.742 253.905 125.594 254.004 125.461 254.136C125.329 254.269 125.214 254.417 125.147 254.583C125.065 254.748 125.032 254.93 125.032 255.095C125.032 255.194 125.048 255.326 125.081 255.458C125.114 255.607 125.197 255.772 125.313 255.954H124.553V256.648H127.378Z" fill="white"/>
    <circle cx="73.0435" cy="203.043" r="33.0435" fill="#309561"/>
    <path d="M70.3899 209.49V199.33C70.3899 198.93 70.5099 198.54 70.7299 198.21L73.4599 194.15C73.8899 193.5 74.9599 193.04 75.8699 193.38C76.8499 193.71 77.4999 194.81 77.2899 195.79L76.7699 199.06C76.7299 199.36 76.8099 199.63 76.9799 199.84C77.1499 200.03 77.3999 200.15 77.6699 200.15H81.7799C82.5699 200.15 83.2499 200.47 83.6499 201.03C84.0299 201.57 84.0999 202.27 83.8499 202.98L81.3899 210.47C81.0799 211.71 79.7299 212.72 78.3899 212.72H74.4899C73.8199 212.72 72.8799 212.49 72.4499 212.06L71.1699 211.07C70.6799 210.7 70.3899 210.11 70.3899 209.49Z" fill="white"/>
    <path d="M67.2102 197.38H66.1802C64.6302 197.38 64.0002 197.98 64.0002 199.46V209.52C64.0002 211 64.6302 211.6 66.1802 211.6H67.2102C68.7602 211.6 69.3902 211 69.3902 209.52V199.46C69.3902 197.98 68.7602 197.38 67.2102 197.38Z" fill="white"/>
    <g clip-path="url(#clip0_0_1)">
        <path fill-rule="evenodd" clip-rule="evenodd" d="M177.632 28.3138C177.423 28.1386 177.155 28.0502 176.884 28.0668C176.612 28.0834 176.356 28.2037 176.171 28.403L168.127 37.1734C167.947 37.3669 167.808 37.595 167.719 37.8439C167.629 38.0928 167.592 38.3573 167.608 38.6212C167.624 38.8852 167.693 39.1431 167.812 39.3793C167.931 39.6154 168.097 39.825 168.299 39.9951L177.416 47.7792C177.838 48.1391 178.485 48.1046 178.867 47.7006C178.96 47.6042 179.032 47.4898 179.078 47.3646C179.125 47.2393 179.145 47.1058 179.138 46.9724C179.131 46.839 179.096 46.7084 179.037 46.5889C178.977 46.4694 178.893 46.3634 178.791 46.2776L170.448 39.1556C170.347 39.0706 170.264 38.9658 170.204 38.8476C170.145 38.7295 170.11 38.6005 170.102 38.4685C170.094 38.3364 170.113 38.2041 170.158 38.0796C170.202 37.9551 170.272 37.841 170.362 37.7443L177.717 29.7242C177.807 29.6276 177.877 29.5136 177.921 29.3891C177.966 29.2647 177.985 29.1325 177.977 29.0006C177.969 28.8686 177.934 28.7397 177.875 28.6216C177.815 28.5036 177.732 28.3989 177.631 28.3139" fill="white"/>
    </g>
    <g clip-path="url(#clip1_0_1)">
        <path fill-rule="evenodd" clip-rule="evenodd" d="M185.246 30.697C185.101 30.5749 184.914 30.5132 184.724 30.5248C184.535 30.5363 184.357 30.6203 184.227 30.7592L178.619 36.8747C178.493 37.0096 178.396 37.1687 178.334 37.3423C178.272 37.5158 178.245 37.7002 178.257 37.8843C178.268 38.0683 178.316 38.2481 178.399 38.4128C178.482 38.5775 178.598 38.7236 178.739 38.8423L185.095 44.27C185.39 44.521 185.841 44.4969 186.108 44.2152C186.172 44.148 186.222 44.0683 186.255 43.9809C186.287 43.8936 186.302 43.8005 186.297 43.7074C186.292 43.6144 186.267 43.5234 186.226 43.44C186.184 43.3567 186.126 43.2828 186.054 43.223L180.237 38.2569C180.167 38.1976 180.109 38.1245 180.067 38.0421C180.026 37.9598 180.001 37.8698 179.996 37.7777C179.99 37.6857 180.003 37.5934 180.035 37.5066C180.066 37.4198 180.114 37.3403 180.177 37.2728L185.306 31.6805C185.369 31.6131 185.417 31.5336 185.448 31.4469C185.479 31.3601 185.493 31.2679 185.487 31.1759C185.481 31.0839 185.457 30.994 185.416 30.9117C185.374 30.8294 185.316 30.7563 185.246 30.6971" fill="white"/>
    </g>
    <g clip-path="url(#clip2_0_1)">
        <path fill-rule="evenodd" clip-rule="evenodd" d="M177.632 194.314C177.423 194.138 177.155 194.05 176.884 194.067C176.612 194.083 176.356 194.204 176.171 194.403L168.127 203.173C167.947 203.367 167.808 203.595 167.719 203.844C167.629 204.093 167.592 204.357 167.608 204.621C167.624 204.885 167.693 205.143 167.812 205.379C167.931 205.615 168.097 205.825 168.299 205.995L177.416 213.779C177.838 214.139 178.485 214.104 178.867 213.7C178.96 213.604 179.032 213.49 179.078 213.364C179.125 213.239 179.145 213.106 179.138 212.972C179.131 212.839 179.096 212.708 179.037 212.589C178.977 212.469 178.893 212.363 178.791 212.277L170.448 205.156C170.347 205.07 170.264 204.966 170.204 204.848C170.145 204.729 170.11 204.6 170.102 204.468C170.094 204.336 170.113 204.204 170.158 204.08C170.202 203.955 170.272 203.841 170.362 203.744L177.717 195.724C177.807 195.627 177.877 195.513 177.921 195.389C177.966 195.265 177.985 195.132 177.977 195C177.969 194.868 177.934 194.74 177.875 194.622C177.815 194.503 177.732 194.399 177.631 194.314" fill="white"/>
    </g>
    <g clip-path="url(#clip3_0_1)">
        <path fill-rule="evenodd" clip-rule="evenodd" d="M185.246 196.697C185.101 196.575 184.914 196.513 184.724 196.525C184.535 196.536 184.357 196.62 184.227 196.759L178.619 202.875C178.493 203.01 178.396 203.169 178.334 203.342C178.272 203.516 178.245 203.7 178.257 203.884C178.268 204.068 178.316 204.248 178.399 204.413C178.482 204.577 178.598 204.724 178.739 204.842L185.095 210.27C185.39 210.521 185.841 210.497 186.108 210.215C186.172 210.148 186.222 210.068 186.255 209.981C186.287 209.893 186.302 209.8 186.297 209.707C186.292 209.614 186.267 209.523 186.226 209.44C186.184 209.357 186.126 209.283 186.054 209.223L180.237 204.257C180.167 204.197 180.109 204.124 180.067 204.042C180.026 203.96 180.001 203.87 179.996 203.778C179.99 203.686 180.003 203.593 180.035 203.507C180.066 203.42 180.114 203.34 180.177 203.273L185.306 197.68C185.369 197.613 185.417 197.533 185.448 197.447C185.479 197.36 185.493 197.268 185.487 197.176C185.481 197.084 185.457 196.994 185.416 196.912C185.374 196.829 185.316 196.756 185.246 196.697" fill="white"/>
    </g>
    <defs>
        <clipPath id="clip0_0_1">
            <rect width="11" height="20" fill="white" transform="translate(167 28.6702) rotate(-3.49303)"/>
        </clipPath>
        <clipPath id="clip1_0_1">
            <rect width="7.67017" height="13.9458" fill="white" transform="translate(177.833 30.9456) rotate(-3.49303)"/>
        </clipPath>
        <clipPath id="clip2_0_1">
            <rect width="11" height="20" fill="white" transform="translate(167 194.67) rotate(-3.49303)"/>
        </clipPath>
        <clipPath id="clip3_0_1">
            <rect width="7.67017" height="13.9458" fill="white" transform="translate(177.833 196.946) rotate(-3.49303)"/>
        </clipPath>
    </defs>
</svg>
