<?xml version="1.0" standalone="no"?>
<!DOCTYPE svg PUBLIC "-//W3C//DTD SVG 20010904//EN"
 "http://www.w3.org/TR/2001/REC-SVG-20010904/DTD/svg10.dtd">
<svg version="1.0" xmlns="http://www.w3.org/2000/svg"
 width="256.000000pt" height="256.000000pt" viewBox="0 0 256.000000 256.000000"
 preserveAspectRatio="xMidYMid meet">
<metadata>
Created by potrace 1.14, written by Peter Selinger 2001-2017
</metadata>
<g transform="translate(0.000000,256.000000) scale(0.100000,-0.100000)"
fill="#000000" stroke="none">
<path d="M993 2283 c-17 -10 -71 -54 -120 -99 -193 -176 -297 -270 -324 -292
-16 -13 -27 -28 -24 -33 4 -5 218 -9 521 -9 l514 0 0 -475 c0 -403 2 -475 14
-475 13 0 43 24 130 103 17 16 71 63 121 105 49 42 111 98 137 125 l48 47 0
470 c0 427 -2 473 -17 497 -34 52 -47 53 -525 53 -404 0 -446 -2 -475 -17z
m953 -46 l24 -28 -1 -452 c0 -249 -3 -459 -7 -468 -4 -9 -86 -85 -182 -169
l-175 -153 -3 456 -2 457 -502 0 -502 0 70 63 c38 35 130 119 203 186 74 68
144 127 155 132 12 4 218 7 459 6 l439 -2 24 -28z"/>
<path d="M935 1554 c-43 -37 -82 -71 -243 -212 -112 -98 -144 -133 -153 -161
-6 -24 -9 -192 -7 -489 l3 -454 37 -34 38 -34 464 0 464 0 34 27 c31 26 132
117 361 327 53 49 94 93 91 97 -3 5 -237 9 -519 9 l-515 0 -2 472 c-2 303 -7
472 -13 474 -5 2 -23 -8 -40 -22z m498 -972 c296 -1 487 -6 487 -12 0 -5 -6
-13 -14 -17 -12 -7 -116 -101 -255 -229 -72 -67 -111 -98 -138 -113 -15 -8
-144 -11 -438 -11 -444 0 -459 2 -485 49 -6 13 -10 183 -10 478 l0 458 53 47
c28 26 108 96 177 156 l125 110 5 -457 5 -456 488 -3z"/>
</g>
</svg>
